{
	"asset":{
		"version":"2.0",
		"generator":"Created using the official Cinema 4D glTF Exporter 1.000x284978"
	},
	"scenes":[{
		"nodes":[0,
		1,
		2,
		3,
		4]
	}],
	"nodes":[{
		"name":"Тор.3",
		"translation":[0.021496614441275598,
		-0.006615742109715939,
		-0.01819264143705368],
		"rotation":[0.22886109352111817,
		-0.42778894305229189,
		-0.804801344871521,
		-0.3419269621372223],
		"scale":[1.0,
		1.0,
		1.0],
		"mesh":0
	},
	{
		"name":"Тор.2",
		"translation":[0.021496614441275598,
		-0.006615742109715939,
		-0.01819264143705368],
		"rotation":[0.15623751282691956,
		0.07802670449018479,
		0.15623751282691956,
		0.9721581935882568],
		"scale":[1.0,
		1.0,
		1.0],
		"mesh":1
	},
	{
		"name":"Тор.1",
		"translation":[0.021496614441275598,
		-0.006615742109715939,
		-0.01819264143705368],
		"rotation":[0.9278772473335266,
		-0.1264435350894928,
		0.028271177783608438,
		0.34965208172798159],
		"scale":[1.0,
		1.0,
		1.0],
		"mesh":2
	},
	{
		"name":"Тор",
		"translation":[0.021496614441275598,
		-0.006615742109715939,
		-0.01819264143705368],
		"rotation":[0.15623751282691956,
		0.07802670449018479,
		0.15623751282691956,
		0.9721581935882568],
		"scale":[1.0,
		1.0,
		1.0],
		"mesh":3
	},
	{
		"name":"Сфера",
		"mesh":4
	}],
	"meshes":[{
		"name":"Тор.3",
		"primitives":[{
			"attributes":{
				"POSITION":1,
				"NORMAL":2,
				"TEXCOORD_0":3
			},
			"indices":0
		}]
	},
	{
		"name":"Тор.2",
		"primitives":[{
			"attributes":{
				"POSITION":5,
				"NORMAL":6,
				"TEXCOORD_0":7
			},
			"indices":4
		}]
	},
	{
		"name":"Тор.1",
		"primitives":[{
			"attributes":{
				"POSITION":9,
				"NORMAL":10,
				"TEXCOORD_0":11
			},
			"indices":8
		}]
	},
	{
		"name":"Тор",
		"primitives":[{
			"attributes":{
				"POSITION":13,
				"NORMAL":14,
				"TEXCOORD_0":15
			},
			"indices":12
		}]
	},
	{
		"name":"Сфера",
		"primitives":[{
			"attributes":{
				"POSITION":17,
				"NORMAL":18,
				"TEXCOORD_0":19
			},
			"indices":16
		}]
	}],
	"accessors":[{
		"min":[0],
		"bufferView":0,
		"type":"SCALAR",
		"componentType":5123,
		"count":9384,
		"byteOffset":0,
		"max":[1688]
	},
	{
		"min":[-1.5799530744552613,
		-0.009848077781498433,
		-1.5799779891967774],
		"bufferView":1,
		"type":"VEC3",
		"componentType":5126,
		"count":1689,
		"byteOffset":0,
		"max":[0.8835247755050659,
		0.009848077781498433,
		0.3822365999221802]
	},
	{
		"min":[-0.9999702572822571,
		-0.9932988882064819,
		-0.9999859929084778],
		"bufferView":1,
		"type":"VEC3",
		"componentType":5126,
		"count":1689,
		"byteOffset":12,
		"max":[0.9999702572822571,
		0.9932990670204163,
		0.9999859929084778]
	},
	{
		"min":[0.0,
		0.0],
		"bufferView":1,
		"type":"VEC2",
		"componentType":5126,
		"count":1689,
		"byteOffset":24,
		"max":[1.0,
		1.0]
	},
	{
		"min":[0],
		"bufferView":2,
		"type":"SCALAR",
		"componentType":5123,
		"count":9288,
		"byteOffset":0,
		"max":[1652]
	},
	{
		"min":[-1.590000033378601,
		-0.019696155562996866,
		-1.5889391899108887],
		"bufferView":3,
		"type":"VEC3",
		"componentType":5126,
		"count":1653,
		"byteOffset":0,
		"max":[1.590000033378601,
		0.019696155562996866,
		1.5889391899108887]
	},
	{
		"min":[-1.0,
		-0.9848070740699768,
		-0.9993329048156738],
		"bufferView":3,
		"type":"VEC3",
		"componentType":5126,
		"count":1653,
		"byteOffset":12,
		"max":[0.9999999403953552,
		0.9848070740699768,
		0.9993329048156738]
	},
	{
		"min":[0.0,
		0.0],
		"bufferView":3,
		"type":"VEC2",
		"componentType":5126,
		"count":1653,
		"byteOffset":24,
		"max":[1.0,
		1.0]
	},
	{
		"min":[0],
		"bufferView":4,
		"type":"SCALAR",
		"componentType":5123,
		"count":9384,
		"byteOffset":0,
		"max":[1688]
	},
	{
		"min":[-1.2278906106948853,
		-0.009848077781498433,
		-1.579992651939392],
		"bufferView":5,
		"type":"VEC3",
		"componentType":5126,
		"count":1689,
		"byteOffset":0,
		"max":[1.5800000429153443,
		0.009848077781498433,
		0.0]
	},
	{
		"min":[-0.9995905756950378,
		-0.9932987093925476,
		-0.9999954104423523],
		"bufferView":5,
		"type":"VEC3",
		"componentType":5126,
		"count":1689,
		"byteOffset":12,
		"max":[0.9995905756950378,
		0.9932987093925476,
		1.0]
	},
	{
		"min":[0.0,
		0.0],
		"bufferView":5,
		"type":"VEC2",
		"componentType":5126,
		"count":1689,
		"byteOffset":24,
		"max":[1.0,
		1.0]
	},
	{
		"min":[0],
		"bufferView":6,
		"type":"SCALAR",
		"componentType":5123,
		"count":9288,
		"byteOffset":0,
		"max":[1652]
	},
	{
		"min":[-1.590000033378601,
		-0.019696155562996866,
		-1.5889391899108887],
		"bufferView":7,
		"type":"VEC3",
		"componentType":5126,
		"count":1653,
		"byteOffset":0,
		"max":[1.590000033378601,
		0.019696155562996866,
		1.5889391899108887]
	},
	{
		"min":[-1.0,
		-0.9848070740699768,
		-0.9993329048156738],
		"bufferView":7,
		"type":"VEC3",
		"componentType":5126,
		"count":1653,
		"byteOffset":12,
		"max":[0.9999999403953552,
		0.9848070740699768,
		0.9993329048156738]
	},
	{
		"min":[0.0,
		0.0],
		"bufferView":7,
		"type":"VEC2",
		"componentType":5126,
		"count":1653,
		"byteOffset":24,
		"max":[1.0,
		1.0]
	},
	{
		"min":[0],
		"bufferView":8,
		"type":"SCALAR",
		"componentType":5123,
		"count":29400,
		"byteOffset":0,
		"max":[5148]
	},
	{
		"min":[-1.0,
		-1.0,
		-1.0],
		"bufferView":9,
		"type":"VEC3",
		"componentType":5126,
		"count":5149,
		"byteOffset":0,
		"max":[1.0,
		1.0,
		1.0]
	},
	{
		"min":[-1.0,
		-1.0,
		-1.0],
		"bufferView":9,
		"type":"VEC3",
		"componentType":5126,
		"count":5149,
		"byteOffset":12,
		"max":[1.0,
		1.0,
		1.0]
	},
	{
		"min":[0.0,
		0.0],
		"bufferView":9,
		"type":"VEC2",
		"componentType":5126,
		"count":5149,
		"byteOffset":24,
		"max":[1.0,
		1.0]
	}],
	"bufferViews":[{
		"buffer":0,
		"target":34963,
		"byteOffset":0,
		"byteLength":18768
	},
	{
		"byteStride":32,
		"buffer":0,
		"target":34962,
		"byteOffset":18768,
		"byteLength":54048
	},
	{
		"buffer":1,
		"target":34963,
		"byteOffset":0,
		"byteLength":18576
	},
	{
		"byteStride":32,
		"buffer":1,
		"target":34962,
		"byteOffset":18576,
		"byteLength":52896
	},
	{
		"buffer":2,
		"target":34963,
		"byteOffset":0,
		"byteLength":18768
	},
	{
		"byteStride":32,
		"buffer":2,
		"target":34962,
		"byteOffset":18768,
		"byteLength":54048
	},
	{
		"buffer":3,
		"target":34963,
		"byteOffset":0,
		"byteLength":18576
	},
	{
		"byteStride":32,
		"buffer":3,
		"target":34962,
		"byteOffset":18576,
		"byteLength":52896
	},
	{
		"buffer":4,
		"target":34963,
		"byteOffset":0,
		"byteLength":58800
	},
	{
		"byteStride":32,
		"buffer":4,
		"target":34962,
		"byteOffset":58800,
		"byteLength":164768
	}],
	"buffers":[{
		"uri":"data:application/octet-stream;base64,",
		"byteLength":72816
	},
	{
		"uri":"data:application/octet-stream;base64,",
		"byteLength":71472
	},
	{
		"uri":"data:application/octet-stream;base64,",
		"byteLength":72816
	},
	{
		"uri":"data:application/octet-stream;base64,",
		"byteLength":71472
	},
	{
		"uri":"data:application/octet-stream;base64,",
		"byteLength":223568
	}]
}