{
	"asset":{
		"version":"2.0",
		"generator":"Created using the official Cinema 4D glTF Exporter 1.000x284978"
	},
	"scenes":[{
		"nodes":[0,
		1,
		2,
		3]
	}],
	"nodes":[{
		"name":"Тор.3",
		"translation":[18.143951416015626,
		8.618929862976075,
		-34.52584457397461],
		"rotation":[0.22886109352111817,
		-0.42778894305229189,
		-0.804801344871521,
		-0.3419269621372223],
		"scale":[1.0,
		1.0,
		1.0],
		"mesh":0
	},
	{
		"name":"Тор.2",
		"translation":[18.143951416015626,
		8.618929862976075,
		-34.52584457397461],
		"rotation":[0.15623751282691956,
		0.07802670449018479,
		0.15623751282691956,
		0.9721581935882568],
		"scale":[1.0,
		1.0,
		1.0],
		"mesh":1
	},
	{
		"name":"Тор.1",
		"translation":[18.143951416015626,
		8.618929862976075,
		-34.52584457397461],
		"rotation":[0.9278772473335266,
		-0.1264435350894928,
		0.028271177783608438,
		0.34965208172798159],
		"scale":[1.0,
		1.0,
		1.0],
		"mesh":2
	},
	{
		"name":"Сфера",
		"translation":[-3.352663040161133,
		15.234671592712403,
		-16.333202362060548],
		"rotation":[0.6470535397529602,
		0.04894459247589111,
		0.29240626096725466,
		-0.7024419903755188],
		"scale":[1.0,
		1.0,
		1.0],
		"mesh":3
	}],
	"meshes":[{
		"name":"Тор.3",
		"primitives":[{
			"attributes":{
				"POSITION":1,
				"NORMAL":2,
				"TEXCOORD_0":3
			},
			"indices":0
		}]
	},
	{
		"name":"Тор.2",
		"primitives":[{
			"attributes":{
				"POSITION":5,
				"NORMAL":6,
				"TEXCOORD_0":7
			},
			"indices":4
		}]
	},
	{
		"name":"Тор.1",
		"primitives":[{
			"attributes":{
				"POSITION":9,
				"NORMAL":10,
				"TEXCOORD_0":11
			},
			"indices":8
		}]
	},
	{
		"name":"Сфера",
		"primitives":[{
			"attributes":{
				"POSITION":13,
				"NORMAL":14,
				"TEXCOORD_0":15
			},
			"indices":12
		}]
	}],
	"accessors":[{
		"min":[0],
		"bufferView":0,
		"type":"SCALAR",
		"componentType":5123,
		"count":9384,
		"byteOffset":0,
		"max":[1688]
	},
	{
		"min":[-922.3129272460938,
		-5.748910903930664,
		-922.3275146484375],
		"bufferView":1,
		"type":"VEC3",
		"componentType":5126,
		"count":1689,
		"byteOffset":0,
		"max":[515.7661743164063,
		5.748910903930664,
		223.1343231201172]
	},
	{
		"min":[-0.9999703168869019,
		-0.9932987689971924,
		-0.9999860525131226],
		"bufferView":1,
		"type":"VEC3",
		"componentType":5126,
		"count":1689,
		"byteOffset":12,
		"max":[0.9999703168869019,
		0.9932985901832581,
		0.9999860525131226]
	},
	{
		"min":[0.0,
		0.0],
		"bufferView":1,
		"type":"VEC2",
		"componentType":5126,
		"count":1689,
		"byteOffset":24,
		"max":[1.0,
		1.0]
	},
	{
		"min":[0],
		"bufferView":2,
		"type":"SCALAR",
		"componentType":5123,
		"count":9288,
		"byteOffset":0,
		"max":[1652]
	},
	{
		"min":[-903.1356811523438,
		-11.187610626220704,
		-902.5331420898438],
		"bufferView":3,
		"type":"VEC3",
		"componentType":5126,
		"count":1653,
		"byteOffset":0,
		"max":[903.1356811523438,
		11.187610626220704,
		902.5331420898438]
	},
	{
		"min":[-0.9999999403953552,
		-0.9848070740699768,
		-0.999332845211029],
		"bufferView":3,
		"type":"VEC3",
		"componentType":5126,
		"count":1653,
		"byteOffset":12,
		"max":[0.9999999403953552,
		0.9848070740699768,
		0.999332845211029]
	},
	{
		"min":[0.0,
		0.0],
		"bufferView":3,
		"type":"VEC2",
		"componentType":5126,
		"count":1653,
		"byteOffset":24,
		"max":[1.0,
		1.0]
	},
	{
		"min":[0],
		"bufferView":4,
		"type":"SCALAR",
		"componentType":5123,
		"count":9384,
		"byteOffset":0,
		"max":[1688]
	},
	{
		"min":[-575.1094970703125,
		-4.612563133239746,
		-740.0242309570313],
		"bufferView":5,
		"type":"VEC3",
		"componentType":5126,
		"count":1689,
		"byteOffset":0,
		"max":[740.0276489257813,
		4.612563133239746,
		0.0]
	},
	{
		"min":[-0.9995905756950378,
		-0.9932985901832581,
		-0.9999952912330627],
		"bufferView":5,
		"type":"VEC3",
		"componentType":5126,
		"count":1689,
		"byteOffset":12,
		"max":[0.9995906352996826,
		0.9932988286018372,
		1.0]
	},
	{
		"min":[0.0,
		0.0],
		"bufferView":5,
		"type":"VEC2",
		"componentType":5126,
		"count":1689,
		"byteOffset":24,
		"max":[1.0,
		1.0]
	},
	{
		"min":[0],
		"bufferView":6,
		"type":"SCALAR",
		"componentType":5123,
		"count":29400,
		"byteOffset":0,
		"max":[5148]
	},
	{
		"min":[-541.851806640625,
		-541.851806640625,
		-541.851806640625],
		"bufferView":7,
		"type":"VEC3",
		"componentType":5126,
		"count":5149,
		"byteOffset":0,
		"max":[541.851806640625,
		541.851806640625,
		541.851806640625]
	},
	{
		"min":[-1.0,
		-1.0,
		-1.0],
		"bufferView":7,
		"type":"VEC3",
		"componentType":5126,
		"count":5149,
		"byteOffset":12,
		"max":[1.0,
		1.0,
		1.0]
	},
	{
		"min":[0.0,
		0.0],
		"bufferView":7,
		"type":"VEC2",
		"componentType":5126,
		"count":5149,
		"byteOffset":24,
		"max":[1.0,
		1.0]
	}],
	"bufferViews":[{
		"buffer":0,
		"target":34963,
		"byteOffset":0,
		"byteLength":18768
	},
	{
		"byteStride":32,
		"buffer":0,
		"target":34962,
		"byteOffset":18768,
		"byteLength":54048
	},
	{
		"buffer":1,
		"target":34963,
		"byteOffset":0,
		"byteLength":18576
	},
	{
		"byteStride":32,
		"buffer":1,
		"target":34962,
		"byteOffset":18576,
		"byteLength":52896
	},
	{
		"buffer":2,
		"target":34963,
		"byteOffset":0,
		"byteLength":18768
	},
	{
		"byteStride":32,
		"buffer":2,
		"target":34962,
		"byteOffset":18768,
		"byteLength":54048
	},
	{
		"buffer":3,
		"target":34963,
		"byteOffset":0,
		"byteLength":58800
	},
	{
		"byteStride":32,
		"buffer":3,
		"target":34962,
		"byteOffset":58800,
		"byteLength":164768
	}],
	"buffers":[{
		"uri":"data:application/octet-stream;base64,",
		"byteLength":72816
	},
	{
		"uri":"data:application/octet-stream;base64,",
		"byteLength":71472
	},
	{
		"uri":"data:application/octet-stream;base64,",
		"byteLength":72816
	},
	{
		"uri":"data:application/octet-stream;base64,",
		"byteLength":223568
	}]
}